<svg width="16" height="16" viewBox="0 0 16 16" fill="none" xmlns="http://www.w3.org/2000/svg">
<path fill-rule="evenodd" clip-rule="evenodd" d="M4.00033 2.33341V1.66675H5.33366V2.33341H10.667V1.66675H12.0003V2.33341H13.3337C13.8859 2.33341 14.3337 2.78113 14.3337 3.33341V13.3334C14.3337 13.8857 13.8859 14.3334 13.3337 14.3334H2.66699C2.11471 14.3334 1.66699 13.8857 1.66699 13.3334V3.33341C1.66699 2.78113 2.11471 2.33341 2.66699 2.33341H4.00033ZM4.00033 3.66675H3.00033V6.66675H13.0003V3.66675H12.0003V4.33341H10.667V3.66675H5.33366V4.33341H4.00033V3.66675ZM13.0003 8.00008H3.00033V13.0001H13.0003V8.00008Z" fill="#4E5969"/>
</svg>
