<svg width="12" height="16" viewBox="0 0 12 16" fill="none" xmlns="http://www.w3.org/2000/svg">
<g clip-path="url(#clip0_315_12212)">
<path d="M5.84357 3.19518C5.92364 3.0951 6.07585 3.0951 6.15592 3.19518L8.40646 6.00836C8.51122 6.13931 8.41799 6.33329 8.25029 6.33329L3.7492 6.33329C3.5815 6.33329 3.48827 6.13931 3.59303 6.00836L5.84357 3.19518Z" fill="#C9CDD4"/>
</g>
<g clip-path="url(#clip1_315_12212)">
<path d="M6.15592 12.8051C6.07585 12.9052 5.92364 12.9052 5.84357 12.8051L3.59303 9.99193C3.48827 9.86098 3.5815 9.66699 3.7492 9.66699L8.25029 9.66699C8.41799 9.66699 8.51122 9.86098 8.40646 9.99193L6.15592 12.8051Z" fill="#C9CDD4"/>
</g>
<defs>
<clipPath id="clip0_315_12212">
<rect width="12" height="8" fill="white"/>
</clipPath>
<clipPath id="clip1_315_12212">
<rect width="12" height="8" fill="white" transform="translate(0 8)"/>
</clipPath>
</defs>
</svg>
