<svg width="16" height="16" viewBox="0 0 16 16" fill="none" xmlns="http://www.w3.org/2000/svg">
<path fill-rule="evenodd" clip-rule="evenodd" d="M2.66634 8.00016C2.66634 5.05464 5.05416 2.66683 7.99967 2.66683C10.9452 2.66683 13.333 5.05464 13.333 8.00016C13.333 10.9457 10.9452 13.3335 7.99967 13.3335C5.05416 13.3335 2.66634 10.9457 2.66634 8.00016ZM7.99967 1.3335C4.31778 1.3335 1.33301 4.31826 1.33301 8.00016C1.33301 11.6821 4.31778 14.6668 7.99967 14.6668C11.6816 14.6668 14.6663 11.6821 14.6663 8.00016C14.6663 4.31826 11.6816 1.3335 7.99967 1.3335ZM7.333 7.92862L9.67781 10.4538L10.6549 9.54653L8.66634 7.40504V4.3335H7.333V7.92862Z" fill="#4E5969"/>
</svg>
