<svg width="24" height="24" viewBox="0 0 24 24" fill="none" xmlns="http://www.w3.org/2000/svg">
<path d="M11.9956 17.9867C10.6637 18.6086 8.91402 18.9859 6.99779 18.9859C5.93234 18.9859 4.4989 18.9859 2 17.9867V2.99917C4.4989 3.99834 5.93234 3.99834 6.99779 3.99834C8.91402 3.99834 10.6637 3.62101 11.9956 2.99917C13.3275 2.37733 15.0771 2 16.9934 2C19.9921 2 21.9912 2.99917 21.9912 2.99917V10.9925" stroke="white" stroke-width="1.5"/>
<path d="M14.4939 10.494C14.4939 11.8736 13.3751 12.992 11.995 12.992C10.6149 12.992 9.49609 11.8736 9.49609 10.494C9.49609 9.11445 10.6149 7.99609 11.995 7.99609C13.3751 7.99609 14.4939 9.11445 14.4939 10.494Z" stroke="white" stroke-width="1.5" stroke-linejoin="round"/>
<path d="M5.49902 11.4922V11.5012" stroke="white" stroke-width="2" stroke-linecap="square" stroke-linejoin="round"/>
<path d="M18.4932 9.48633V9.49531" stroke="white" stroke-width="2" stroke-linecap="square" stroke-linejoin="round"/>
<path d="M20.5005 12.9902L21.997 14.9842V15.4866H14.9914C14.9859 15.4866 14.9814 15.4911 14.9814 15.4966V17.4937M16.5078 21.9984L14.9814 19.9806V19.48L21.9947 19.497C22.0003 19.497 22.0048 19.4925 22.0048 19.487V17.4937" stroke="white" stroke-width="1.5"/>
</svg>
