<svg width="20" height="20" viewBox="0 0 20 20" fill="none" xmlns="http://www.w3.org/2000/svg">
<path fill-rule="evenodd" clip-rule="evenodd" d="M7.50004 6.24992C7.50004 4.86921 8.61933 3.74992 10 3.74992C11.3808 3.74992 12.5 4.86921 12.5 6.24992C12.5 7.63063 11.3808 8.74992 10 8.74992C8.61933 8.74992 7.50004 7.63063 7.50004 6.24992ZM10 2.08325C7.69885 2.08325 5.83337 3.94873 5.83337 6.24992C5.83337 8.55111 7.69885 10.4166 10 10.4166C12.3012 10.4166 14.1667 8.55111 14.1667 6.24992C14.1667 3.94873 12.3012 2.08325 10 2.08325ZM6.66671 11.2499C5.46736 11.2499 4.32937 11.6154 3.47664 12.3372C2.61069 13.0703 2.08337 14.1364 2.08337 15.4166V16.6666C2.08337 17.3569 2.64302 17.9166 3.33337 17.9166H16.6667C17.3571 17.9166 17.9167 17.3569 17.9167 16.6666V15.4166C17.9167 14.1364 17.3894 13.0703 16.5234 12.3372C15.6707 11.6154 14.5327 11.2499 13.3334 11.2499H6.66671ZM3.75004 15.4166C3.75004 14.6257 4.06219 14.0252 4.55347 13.6093C5.05797 13.1823 5.79499 12.9166 6.66671 12.9166H13.3334C14.2051 12.9166 14.9421 13.1823 15.4466 13.6093C15.9379 14.0252 16.25 14.6257 16.25 15.4166V16.2499H3.75004V15.4166Z" fill="#4E5969"/>
</svg>
