<svg width="24" height="24" viewBox="0 0 24 24" fill="none" xmlns="http://www.w3.org/2000/svg">
<path d="M11.9956 17.9867C10.6637 18.6086 8.91402 18.9859 6.99779 18.9859C5.93234 18.9859 4.4989 18.9859 2 17.9867V2.99917C4.4989 3.99834 5.93234 3.99834 6.99779 3.99834C8.91402 3.99834 10.6637 3.62101 11.9956 2.99917C13.3275 2.37733 15.0771 2 16.9934 2C19.9921 2 21.9912 2.99917 21.9912 2.99917V10.9925" stroke="#1D2129" stroke-width="1.5"/>
<path d="M14.4944 10.493C14.4944 11.8726 13.3756 12.991 11.9955 12.991C10.6154 12.991 9.49658 11.8726 9.49658 10.493C9.49658 9.11348 10.6154 7.99512 11.9955 7.99512C13.3756 7.99512 14.4944 9.11348 14.4944 10.493Z" stroke="#1D2129" stroke-width="1.5" stroke-linejoin="round"/>
<path d="M5.49854 11.4922V11.5012" stroke="#1D2129" stroke-width="2" stroke-linecap="square" stroke-linejoin="round"/>
<path d="M18.4927 9.48584V9.49482" stroke="#1D2129" stroke-width="2" stroke-linecap="square" stroke-linejoin="round"/>
<path d="M20.5005 12.9907L21.997 14.9847V15.4871H14.9914C14.9859 15.4871 14.9814 15.4916 14.9814 15.4971V17.4942M16.5078 21.9989L14.9814 19.9811V19.4805L21.9947 19.4975C22.0003 19.4975 22.0048 19.493 22.0048 19.4875V17.4942" stroke="#1D2129" stroke-width="1.5"/>
</svg>
